<?xml version="1.0" encoding="UTF-8" ?>
<!DOCTYPE svg PUBLIC "-//W3C//DTD SVG 1.1//EN" "http://www.w3.org/Graphics/SVG/1.1/DTD/svg11.dtd">
<svg width="512pt" height="97pt" viewBox="0 0 512 97" version="1.1" xmlns="http://www.w3.org/2000/svg">
<path fill="#ffffff" d=" M 0.00 0.00 L 46.46 0.00 C 32.55 0.65 19.02 7.43 10.45 18.44 C 4.09 26.37 0.54 36.35 0.00 46.47 L 0.00 0.00 Z" />
<path fill="#ff6119" d=" M 46.46 0.00 L 51.45 0.00 C 69.99 1.09 87.29 13.58 93.77 31.04 C 87.48 26.23 82.42 20.08 76.52 14.82 C 76.35 23.63 76.63 32.43 76.29 41.23 C 74.90 41.22 73.51 41.22 72.12 41.21 C 72.27 33.61 72.15 26.00 72.22 18.40 C 69.51 18.41 66.81 18.41 64.11 18.43 C 64.27 17.16 64.43 15.89 64.59 14.62 C 62.50 14.59 60.41 14.57 58.32 14.54 C 58.27 13.06 58.22 11.59 58.18 10.11 C 54.95 10.13 51.72 10.17 48.49 10.22 C 45.26 10.26 42.02 10.26 38.79 10.27 C 38.77 11.69 38.76 13.11 38.75 14.53 C 32.84 14.44 26.94 14.57 21.04 14.57 C 21.07 23.50 20.98 32.43 21.12 41.36 L 20.96 41.39 C 15.38 43.50 10.03 46.17 4.55 48.54 C 4.87 48.60 5.51 48.73 5.83 48.79 C 6.99 49.40 8.14 50.00 9.31 50.60 L 7.09 50.38 C 11.19 55.63 16.09 60.16 21.03 64.58 C 21.07 70.80 21.03 77.02 21.04 83.24 C 24.10 86.36 26.95 89.68 29.57 93.17 C 12.83 86.36 1.11 69.46 0.00 51.50 L 0.00 46.47 C 0.54 36.35 4.09 26.37 10.45 18.44 C 19.02 7.43 32.55 0.65 46.46 0.00 Z" />
<path fill="#ffffff" d=" M 51.45 0.00 L 512.00 0.00 L 512.00 97.00 L 50.68 97.00 C 65.75 96.31 80.28 88.30 88.66 75.72 C 97.50 62.83 99.48 45.60 93.77 31.04 C 87.29 13.58 69.99 1.09 51.45 0.00 Z" />
<path fill="#ffffff" d=" M 38.79 10.27 C 42.02 10.26 45.26 10.26 48.49 10.22 C 48.52 11.72 48.54 13.23 48.57 14.74 C 45.29 14.67 42.02 14.60 38.75 14.53 C 38.76 13.11 38.77 11.69 38.79 10.27 Z" />
<path fill="#fee391" d=" M 48.49 10.22 C 51.72 10.17 54.95 10.13 58.18 10.11 C 58.22 11.59 58.27 13.06 58.32 14.54 C 60.41 14.57 62.50 14.59 64.59 14.62 C 64.43 15.89 64.27 17.16 64.11 18.43 C 63.92 19.87 63.74 21.32 63.57 22.77 C 53.51 22.84 43.47 22.49 33.41 22.62 C 33.40 21.26 33.40 19.90 33.39 18.55 C 30.61 18.55 27.82 18.56 25.04 18.56 C 25.04 21.45 25.05 24.34 25.04 27.22 C 25.02 31.89 25.00 36.55 25.00 41.22 C 23.71 41.23 22.41 41.28 21.12 41.36 C 20.98 32.43 21.07 23.50 21.04 14.57 C 26.94 14.57 32.84 14.44 38.75 14.53 C 42.02 14.60 45.29 14.67 48.57 14.74 C 48.54 13.23 48.52 11.72 48.49 10.22 Z" />
<path fill="#e63c00" d=" M 405.54 12.76 C 407.29 12.79 409.10 12.64 410.82 13.13 C 411.79 14.36 411.35 15.98 411.43 17.40 C 408.53 17.27 405.62 16.11 405.54 12.76 Z" />
<path fill="#e63c00" d=" M 339.35 14.67 C 340.86 14.61 342.54 14.14 343.91 15.03 C 345.04 16.77 344.97 18.92 345.10 20.91 C 345.22 25.87 345.46 30.83 345.94 35.77 C 350.59 34.23 354.94 31.21 360.05 31.73 C 360.29 33.10 360.53 34.48 360.76 35.86 C 356.13 38.14 351.09 39.42 346.45 41.65 C 345.24 48.99 349.03 56.22 347.28 63.46 C 345.35 62.81 342.33 62.55 342.14 59.93 C 341.42 54.81 341.07 49.63 340.75 44.47 C 338.57 44.80 335.57 46.20 334.13 43.75 C 332.62 40.06 337.83 39.74 339.89 38.03 C 340.64 30.24 338.82 22.48 339.35 14.67 Z" />
<path fill="#e63c00" d=" M 76.29 41.23 C 76.63 32.43 76.35 23.63 76.52 14.82 C 82.42 20.08 87.48 26.23 93.77 31.04 C 99.48 45.60 97.50 62.83 88.66 75.72 C 80.28 88.30 65.75 96.31 50.68 97.00 L 45.59 97.00 C 40.10 96.51 34.65 95.35 29.57 93.17 C 26.95 89.68 24.10 86.36 21.04 83.24 C 30.57 83.27 40.09 83.17 49.62 83.29 C 58.53 83.54 67.44 83.54 76.35 83.37 C 76.54 74.32 76.55 65.26 76.34 56.21 C 79.15 56.08 81.96 56.01 84.78 55.94 C 84.76 54.13 84.75 52.32 84.75 50.51 C 86.83 50.49 88.91 50.47 91.00 50.46 C 90.98 49.47 90.96 47.50 90.95 46.51 C 88.88 46.52 86.81 46.53 84.74 46.55 C 84.75 44.78 84.75 43.01 84.76 41.25 C 81.94 41.25 79.11 41.24 76.29 41.23 Z" />
<path fill="#3ecba4" d=" M 176.59 16.71 C 178.81 17.12 182.88 16.67 182.87 19.95 C 182.89 33.86 184.07 47.79 183.37 61.69 C 181.97 64.46 177.32 62.87 177.09 60.00 C 176.60 53.68 177.36 47.32 177.11 40.99 C 177.36 32.88 176.34 24.80 176.59 16.71 Z" />
<path fill="#b3f6fc" d=" M 25.04 18.56 C 27.82 18.56 30.61 18.55 33.39 18.55 C 33.40 19.90 33.40 21.26 33.41 22.62 C 43.47 22.49 53.51 22.84 63.57 22.77 C 63.74 21.32 63.92 19.87 64.11 18.43 C 66.81 18.41 69.51 18.41 72.22 18.40 C 72.15 26.00 72.27 33.61 72.12 41.21 C 64.26 41.31 56.39 41.26 48.53 41.26 C 48.50 39.67 48.47 38.09 48.44 36.51 C 42.09 36.42 35.74 36.38 29.38 36.49 C 29.37 35.11 29.35 33.74 29.34 32.36 C 36.02 32.48 42.72 32.64 49.37 31.77 C 49.05 30.24 48.73 28.71 48.42 27.18 C 40.63 26.50 32.83 27.15 25.04 27.22 C 25.05 24.34 25.04 21.45 25.04 18.56 Z" />
<path fill="#3ecba4" d=" M 123.61 30.56 C 128.62 28.68 133.83 27.21 139.07 26.15 C 141.74 25.58 142.60 30.42 140.19 31.19 C 133.67 33.48 125.93 34.21 121.21 39.86 C 129.29 42.99 138.43 41.14 146.36 44.73 C 149.28 45.66 149.70 49.62 147.79 51.70 C 143.72 56.43 138.45 60.24 132.56 62.34 C 130.19 62.92 126.53 64.17 125.53 61.04 C 125.98 58.22 129.15 57.49 131.37 56.50 C 135.94 54.96 139.88 52.09 143.45 48.92 C 135.94 47.34 128.18 47.21 120.75 45.25 C 118.64 44.65 115.79 43.61 115.75 40.98 C 115.39 36.12 119.31 32.13 123.61 30.56 Z" />
<path fill="#3ecba4" d=" M 156.57 32.55 C 159.43 28.72 163.98 25.53 168.94 25.82 C 170.77 26.46 171.33 28.58 171.70 30.28 C 172.59 35.12 172.64 40.08 172.80 44.99 C 172.84 51.09 173.56 57.16 173.46 63.26 C 171.56 62.81 168.61 63.50 167.78 61.13 C 166.42 56.29 166.52 51.17 165.91 46.20 C 163.41 50.77 161.46 55.93 157.38 59.35 C 155.28 61.28 149.88 60.71 150.55 57.03 C 150.72 48.64 151.58 39.61 156.57 32.55 Z" />
<path fill="#3ecba4" d=" M 188.17 39.11 C 190.34 32.55 195.77 26.19 203.08 25.78 C 205.19 25.57 206.15 27.91 206.55 29.59 C 207.56 34.31 207.58 39.16 207.77 43.96 C 207.79 50.40 208.55 56.82 208.46 63.27 C 206.38 62.91 203.10 63.38 202.58 60.60 C 201.52 55.87 201.43 50.99 200.92 46.19 C 198.55 50.58 196.61 55.39 192.94 58.90 C 191.13 60.86 187.37 61.01 185.73 58.91 C 185.21 52.26 186.17 45.46 188.17 39.11 Z" />
<path fill="#3ecba4" d=" M 216.47 33.45 C 219.30 29.31 223.88 25.61 229.14 25.81 C 231.46 26.18 231.89 28.93 232.31 30.82 C 233.36 37.50 233.07 44.30 233.54 51.03 C 233.64 54.86 234.35 58.72 233.79 62.55 C 232.41 62.89 231.01 63.19 229.61 63.44 C 226.45 58.19 227.21 51.82 226.50 45.97 C 223.93 50.71 221.95 56.15 217.59 59.57 C 215.57 61.16 213.10 59.89 210.95 59.38 C 211.21 50.57 211.51 41.09 216.47 33.45 Z" />
<path fill="#e63c00" d=" M 305.44 31.41 C 310.65 28.90 316.40 27.83 321.94 26.29 C 324.74 25.40 325.73 30.65 323.08 31.22 C 316.58 33.27 308.88 34.18 304.34 39.84 C 312.47 43.43 322.00 41.08 329.99 45.12 C 332.89 46.45 332.44 50.46 330.34 52.33 C 325.20 57.63 318.59 62.57 310.97 63.00 C 307.79 62.12 309.24 58.52 311.78 57.88 C 317.32 55.83 322.73 53.16 326.86 48.82 C 319.29 47.14 311.43 47.08 303.92 45.07 C 301.86 44.49 299.28 43.47 299.10 40.98 C 298.87 36.87 301.78 33.06 305.44 31.41 Z" />
<path fill="#ffffff" d=" M 25.04 27.22 C 32.83 27.15 40.63 26.50 48.42 27.18 C 48.73 28.71 49.05 30.24 49.37 31.77 C 42.72 32.64 36.02 32.48 29.34 32.36 C 29.35 33.74 29.37 35.11 29.38 36.49 C 35.74 36.38 42.09 36.42 48.44 36.51 C 48.47 38.09 48.50 39.67 48.53 41.26 C 40.68 41.25 32.84 41.25 25.00 41.22 C 25.00 36.55 25.02 31.89 25.04 27.22 Z" />
<path fill="#e63c00" d=" M 400.03 28.99 C 402.20 26.98 406.61 29.66 404.82 32.55 C 399.74 36.84 394.36 41.49 392.25 48.04 C 391.19 52.62 392.80 57.29 392.50 61.92 C 390.75 64.46 386.73 62.40 386.68 59.69 C 385.99 50.03 385.03 40.39 384.24 30.74 C 386.07 31.11 388.70 30.20 389.82 32.21 C 390.20 34.28 390.23 36.38 390.41 38.47 C 393.38 35.08 396.41 31.69 400.03 28.99 Z" />
<path fill="#3ecba4" d=" M 260.72 31.52 C 262.99 31.00 265.90 31.85 266.42 34.41 C 268.04 41.19 268.85 48.14 270.40 54.94 C 270.67 57.14 271.74 59.52 270.61 61.63 C 268.52 62.64 265.25 61.79 264.91 59.21 C 263.75 54.73 263.21 50.11 262.10 45.61 C 260.47 50.81 259.22 56.10 257.87 61.37 C 255.80 61.23 252.41 62.00 251.76 59.29 C 250.55 54.24 250.82 48.95 250.09 43.81 C 247.46 49.85 246.61 56.42 244.69 62.67 C 242.18 63.75 238.64 62.74 238.69 59.56 C 237.95 50.76 237.57 41.91 236.87 33.09 C 238.92 33.28 241.71 31.92 243.15 33.95 C 244.07 36.64 243.74 39.57 244.02 42.37 C 246.12 38.92 247.53 35.02 250.13 31.90 C 251.95 30.81 255.51 31.51 255.77 33.99 C 256.17 36.85 256.14 39.74 256.33 42.62 C 257.70 38.89 258.40 34.82 260.72 31.52 Z" />
<path fill="#e63c00" d=" M 406.66 32.93 C 405.77 29.42 410.08 30.99 412.06 30.83 C 413.95 40.52 413.13 50.54 415.49 60.17 C 416.27 64.40 409.25 63.41 409.44 59.93 C 408.59 50.92 407.68 41.92 406.66 32.93 Z" />
<path fill="#e63c00" d=" M 424.69 34.68 C 428.57 29.96 436.33 35.94 435.16 40.97 C 432.99 44.45 429.09 46.38 426.24 49.25 C 423.64 51.14 424.51 54.76 424.00 57.50 C 429.44 53.14 434.81 48.51 438.81 42.75 C 440.05 40.91 442.47 41.57 444.32 41.63 C 444.02 43.76 445.02 46.52 443.27 48.19 C 439.89 51.15 436.39 54.00 433.28 57.25 C 430.24 60.30 426.13 63.85 421.50 62.41 C 417.24 60.50 418.27 55.14 418.46 51.41 C 417.88 50.19 416.85 49.05 417.06 47.62 C 417.73 47.26 419.06 46.55 419.72 46.19 C 421.29 42.33 422.07 38.01 424.69 34.68 Z" />
<path fill="#ffffff" d=" M 157.47 49.48 C 158.09 43.57 159.48 37.31 164.21 33.26 C 163.73 39.22 161.67 45.11 157.47 49.48 Z" />
<path fill="#ffffff" d=" M 192.47 49.48 C 193.08 43.56 194.50 37.31 199.21 33.24 C 198.73 39.21 196.68 45.10 192.47 49.48 Z" />
<path fill="#ffffff" d=" M 217.93 49.51 C 218.61 43.59 219.96 37.33 224.73 33.29 C 224.22 39.26 222.14 45.14 217.93 49.51 Z" />
<path fill="#e63c00" d=" M 456.89 35.81 C 459.94 33.85 463.71 33.58 467.17 34.51 C 467.14 35.43 467.07 37.29 467.04 38.21 C 460.68 38.04 455.53 42.26 451.97 47.14 C 457.53 46.75 463.72 43.10 468.99 46.19 C 470.17 49.20 467.93 51.91 466.23 54.15 C 463.78 57.09 461.68 60.30 459.07 63.10 C 457.79 62.91 456.56 62.55 455.32 62.20 C 455.27 61.48 455.17 60.02 455.13 59.30 C 457.54 56.57 459.86 53.76 461.93 50.76 C 456.84 51.39 451.16 53.57 446.33 50.80 C 444.06 49.65 444.82 46.57 446.18 45.00 C 449.12 41.30 452.95 38.39 456.89 35.81 Z" />
<path fill="#e63c00" d=" M 365.21 34.77 C 367.54 34.68 369.68 35.36 371.23 37.17 C 373.61 36.91 376.39 36.75 378.01 38.89 C 382.02 43.78 382.53 51.49 378.81 56.71 C 376.49 60.25 372.62 63.97 368.01 62.89 C 363.52 61.59 362.08 56.28 362.62 52.12 C 363.34 46.32 364.17 40.53 365.21 34.77 Z" />
<path fill="#ffffff" d=" M 427.56 40.78 C 427.00 39.57 428.72 37.68 429.99 38.25 C 430.77 39.55 428.81 41.25 427.56 40.78 Z" />
<path fill="#366796" d=" M 21.12 41.36 C 22.41 41.28 23.71 41.23 25.00 41.22 C 32.84 41.25 40.68 41.25 48.53 41.26 C 56.39 41.26 64.26 41.31 72.12 41.21 C 72.05 42.89 71.99 44.57 71.94 46.26 C 64.12 46.25 56.31 46.25 48.50 46.25 C 48.50 46.82 48.50 47.96 48.50 48.53 C 39.35 48.39 30.20 48.53 21.06 48.72 C 21.02 46.27 20.99 43.83 20.96 41.39 L 21.12 41.36 Z" />
<path fill="#ffffff" d=" M 72.12 41.21 C 73.51 41.22 74.90 41.22 76.29 41.23 C 76.26 43.59 76.25 45.94 76.24 48.30 L 76.24 48.47 C 75.26 48.47 73.30 48.48 72.32 48.48 C 72.27 48.98 72.16 49.99 72.11 50.50 C 64.24 50.51 56.37 50.50 48.50 50.50 C 48.50 50.01 48.50 49.02 48.50 48.53 C 48.50 47.96 48.50 46.82 48.50 46.25 C 56.31 46.25 64.12 46.25 71.94 46.26 C 71.99 44.57 72.05 42.89 72.12 41.21 Z" />
<path fill="#366796" d=" M 76.29 41.23 C 79.11 41.24 81.94 41.25 84.76 41.25 C 84.75 43.01 84.75 44.78 84.74 46.55 C 84.74 47.07 84.74 48.13 84.74 48.66 C 81.91 48.53 79.08 48.42 76.24 48.30 C 76.25 45.94 76.26 43.59 76.29 41.23 Z" />
<path fill="#ffffff" d=" M 4.55 48.54 C 10.03 46.17 15.38 43.50 20.96 41.39 C 20.99 43.83 21.02 46.27 21.06 48.72 C 15.99 48.34 10.90 48.46 5.83 48.79 C 5.51 48.73 4.87 48.60 4.55 48.54 Z" />
<path fill="#ffffff" d=" M 372.36 42.19 C 373.42 41.15 374.68 42.95 375.23 43.77 C 378.06 48.66 374.26 55.79 369.21 56.98 C 367.39 52.15 367.97 45.46 372.36 42.19 Z" />
<path fill="#fee391" d=" M 84.74 46.55 C 86.81 46.53 88.88 46.52 90.95 46.51 C 90.96 47.50 90.98 49.47 91.00 50.46 C 88.91 50.47 86.83 50.49 84.75 50.51 C 84.75 50.04 84.74 49.12 84.74 48.66 C 84.74 48.13 84.74 47.07 84.74 46.55 Z" />
<path fill="#121149" d=" M 76.24 48.30 C 79.08 48.42 81.91 48.53 84.74 48.66 C 84.74 49.12 84.75 50.04 84.75 50.51 C 84.75 52.32 84.76 54.13 84.78 55.94 C 81.96 56.01 79.15 56.08 76.34 56.21 C 76.27 53.63 76.24 51.05 76.24 48.47 L 76.24 48.30 Z" />
<path fill="#fee391" d=" M 5.83 48.79 C 10.90 48.46 15.99 48.34 21.06 48.72 C 21.01 51.15 21.00 53.58 20.98 56.01 C 22.32 56.01 23.66 56.01 25.00 56.00 C 25.00 63.67 25.00 71.33 25.01 78.99 C 32.82 79.00 40.63 79.00 48.44 78.99 C 48.44 77.26 48.43 75.54 48.43 73.81 C 48.66 75.59 48.88 77.37 49.11 79.15 C 49.28 80.53 49.45 81.91 49.62 83.29 C 40.09 83.17 30.57 83.27 21.04 83.24 C 21.03 77.02 21.07 70.80 21.03 64.58 C 21.02 61.64 21.00 58.71 20.96 55.77 C 17.06 54.09 13.18 52.35 9.31 50.60 C 8.14 50.00 6.99 49.40 5.83 48.79 Z" />
<path fill="#121149" d=" M 21.06 48.72 C 30.20 48.53 39.35 48.39 48.50 48.53 C 48.50 49.02 48.50 50.01 48.50 50.50 C 56.37 50.50 64.24 50.51 72.11 50.50 C 72.01 52.35 72.03 54.20 72.04 56.05 C 64.31 55.93 56.58 56.03 48.85 56.00 C 40.90 56.01 32.95 55.99 25.00 56.00 C 23.66 56.01 22.32 56.01 20.98 56.01 C 21.00 53.58 21.01 51.15 21.06 48.72 Z" />
<path fill="#fee391" d=" M 72.11 50.50 C 72.16 49.99 72.27 48.98 72.32 48.48 C 73.30 48.48 75.26 48.47 76.24 48.47 C 76.24 51.05 76.27 53.63 76.34 56.21 C 74.91 56.17 73.47 56.11 72.04 56.05 C 72.03 54.20 72.01 52.35 72.11 50.50 Z" />
<path fill="#e63c00" d=" M 7.09 50.38 L 9.31 50.60 C 13.18 52.35 17.06 54.09 20.96 55.77 C 21.00 58.71 21.02 61.64 21.03 64.58 C 16.09 60.16 11.19 55.63 7.09 50.38 Z" />
<path fill="#ffffff" d=" M 0.00 51.50 C 1.11 69.46 12.83 86.36 29.57 93.17 C 34.65 95.35 40.10 96.51 45.59 97.00 L 0.00 97.00 L 0.00 51.50 Z" />
<path fill="#ffffff" d=" M 25.00 56.00 C 32.95 55.99 40.90 56.01 48.85 56.00 C 48.69 57.58 48.53 59.17 48.37 60.76 C 42.01 61.12 35.65 61.26 29.29 61.01 C 29.31 62.22 29.34 63.43 29.37 64.64 C 35.84 64.51 42.31 64.58 48.77 64.82 C 48.67 66.48 48.56 68.14 48.45 69.79 C 42.08 70.17 35.70 70.33 29.33 70.18 C 29.31 71.38 29.29 72.57 29.28 73.77 C 35.66 73.78 42.05 73.81 48.43 73.81 C 48.43 75.54 48.44 77.26 48.44 78.99 C 40.63 79.00 32.82 79.00 25.01 78.99 C 25.00 71.33 25.00 63.67 25.00 56.00 Z" />
<path fill="#b3f6fc" d=" M 48.85 56.00 C 56.58 56.03 64.31 55.93 72.04 56.05 C 72.35 63.77 72.12 71.49 72.21 79.21 C 64.51 79.17 56.81 79.24 49.11 79.15 C 48.88 77.37 48.66 75.59 48.43 73.81 C 42.05 73.81 35.66 73.78 29.28 73.77 C 29.29 72.57 29.31 71.38 29.33 70.18 C 35.70 70.33 42.08 70.17 48.45 69.79 C 48.56 68.14 48.67 66.48 48.77 64.82 C 42.31 64.58 35.84 64.51 29.37 64.64 C 29.34 63.43 29.31 62.22 29.29 61.01 C 35.65 61.26 42.01 61.12 48.37 60.76 C 48.53 59.17 48.69 57.58 48.85 56.00 Z" />
<path fill="#ff6119" d=" M 72.04 56.05 C 73.47 56.11 74.91 56.17 76.34 56.21 C 76.55 65.26 76.54 74.32 76.35 83.37 C 67.44 83.54 58.53 83.54 49.62 83.29 C 49.45 81.91 49.28 80.53 49.11 79.15 C 56.81 79.24 64.51 79.17 72.21 79.21 C 72.12 71.49 72.35 63.77 72.04 56.05 Z" />
</svg>
